<svg width="32" height="33" fill="none" xmlns="http://www.w3.org/2000/svg"><g clip-path="url(#a)"><path d="M26.276 31.954a96.832 96.832 0 0 1-20.545 0 5.83 5.83 0 0 1-5.186-5.178 96.835 96.835 0 0 1 0-20.545 5.83 5.83 0 0 1 5.179-5.186 96.834 96.834 0 0 1 20.545 0 5.83 5.83 0 0 1 5.186 5.179 96.832 96.832 0 0 1 0 20.545 5.83 5.83 0 0 1-5.179 5.186Z" fill="#29A71A"/><path d="M23.055 9.445A9.922 9.922 0 0 0 7.16 20.924l-1.053 5.11a.379.379 0 0 0 .06.297.383.383 0 0 0 .408.158l5.009-1.187a9.92 9.92 0 0 0 11.47-15.857Zm-1.562 12.466a7.771 7.771 0 0 1-8.95 1.454l-.697-.345-3.071.727.009-.038.636-3.09-.342-.675a7.767 7.767 0 1 1 12.415 1.967Z" fill="#fff"/><path d="M21.22 19.644c-.376.593-.97 1.318-1.718 1.498-1.31.316-3.318.01-5.818-2.32l-.031-.027c-2.198-2.039-2.77-3.735-2.631-5.08.076-.764.713-1.455 1.249-1.906a.712.712 0 0 1 1.118.257l.81 1.818a.71.71 0 0 1-.09.727l-.409.53a.704.704 0 0 0-.064.786c.23.402.779.993 1.388 1.54.683.619 1.441 1.184 1.921 1.377a.695.695 0 0 0 .762-.16l.475-.478a.726.726 0 0 1 .709-.182l1.922.545a.728.728 0 0 1 .407 1.075Z" fill="#fff"/></g><defs><clipPath id="a"><path fill="#fff" transform="translate(0 .5)" d="M0 0h32v32H0z"/></clipPath></defs></svg>