<svg width="32" height="33" fill="none" xmlns="http://www.w3.org/2000/svg"><g clip-path="url(#a)"><path d="M26.276 31.954a96.832 96.832 0 0 1-20.545 0 5.83 5.83 0 0 1-5.186-5.178 96.835 96.835 0 0 1 0-20.545 5.83 5.83 0 0 1 5.179-5.186 96.834 96.834 0 0 1 20.545 0 5.83 5.83 0 0 1 5.186 5.179 96.832 96.832 0 0 1 0 20.545 5.83 5.83 0 0 1-5.179 5.186Z" fill="#E60000"/><path d="M25.533 11.69c-.4-1.232-1.724-1.977-2.942-2.148a62.392 62.392 0 0 0-13.182 0c-1.218.17-2.545.91-2.942 2.147a24.986 24.986 0 0 0 0 9.624c.4 1.229 1.724 1.976 2.942 2.147 4.382.466 8.8.466 13.182 0 1.218-.17 2.545-.909 2.942-2.147a24.983 24.983 0 0 0 0-9.624Zm-11.926 8.643v-7.666l6.24 3.833c-2.103 1.293-4.145 2.546-6.24 3.833Z" fill="#fff"/></g><defs><clipPath id="a"><path fill="#fff" transform="translate(0 .5)" d="M0 0h32v32H0z"/></clipPath></defs></svg>