<svg width="138" height="34" fill="none" xmlns="http://www.w3.org/2000/svg"><g clip-path="url(#a)"><path d="m39.332 3.471 8.41 26.185a3 3 0 0 1-2.856 3.917h-4.113a5 5 0 0 1-4.765-3.487L27.695 3.908A3 3 0 0 1 30.555 0h4.017a5 5 0 0 1 4.76 3.471Z" fill="#FF5F6D"/><path d="m27.965 22.107-6.297-20.17A2.758 2.758 0 0 0 19.035 0a3.152 3.152 0 0 0-3.148 2.992l-.758 14.867a7.999 7.999 0 0 0 .326 2.7l3.253 10.874a3 3 0 0 0 2.874 2.14h2.435a3 3 0 0 0 2.858-2.089l1.072-3.36a10 10 0 0 0 .018-6.017Z" fill="#fff"/><path d="m27.965 22.107-6.297-20.17A2.758 2.758 0 0 0 19.035 0a3.152 3.152 0 0 0-3.148 2.992l-.758 14.867a7.999 7.999 0 0 0 .326 2.7l3.253 10.874a3 3 0 0 0 2.874 2.14h2.435a3 3 0 0 0 2.858-2.089l1.072-3.36a10 10 0 0 0 .018-6.017Z" fill="url(#b)" fill-opacity=".6"/><path d="M14.978 0h3.75a3 3 0 0 1 2.87 3.875l-8.046 26.4a5 5 0 0 1-4.783 3.543H5.02a3 3 0 0 1-2.87-3.874l8.046-26.402A5 5 0 0 1 14.978 0Z" fill="#FF5F6D"/><path d="M55.55 24h2.58l.6-7.94c.06-.94.02-2.22.02-2.22h.04s.44 1.4.78 2.22l2.28 5.5h2.26l2.3-5.5c.34-.82.76-2.2.76-2.2h.04s-.04 1.26.02 2.2l.6 7.94h2.56L69.25 9.8h-2.76l-2.78 7.02c-.32.84-.7 2.08-.7 2.08h-.04s-.4-1.24-.72-2.08L59.47 9.8h-2.76L55.55 24Zm16.679-5.1c0 2.9 2.1 5.34 5.48 5.34 2.54 0 4.1-1.46 4.1-1.46l-.98-1.82s-1.3 1.12-2.94 1.12c-1.52 0-2.9-.92-3.06-2.7h7.04s.06-.68.06-.98c0-2.7-1.58-4.84-4.52-4.84-3.04 0-5.18 2.2-5.18 5.34Zm2.68-1.26c.24-1.32 1.14-2.12 2.44-2.12 1.12 0 1.98.74 2.02 2.12h-4.46Zm9.354 2.62c0 3.42 2.82 3.84 4.24 3.84.48 0 .78-.06.78-.06v-2.22s-.18.04-.46.04c-.7 0-2.02-.24-2.02-1.92v-3.96h2.32v-2.02h-2.32v-2.94h-2.48v2.94h-1.38v2.02h1.32v4.28Zm6.9 3.74h2.54v-4.04c0-.6.06-1.16.22-1.66.48-1.52 1.7-2.14 2.78-2.14.34 0 .6.04.6.04v-2.5s-.22-.04-.46-.04c-1.56 0-2.78 1.16-3.24 2.62h-.04s.04-.34.04-.72V13.8h-2.44V24Zm6.89-5.1c0 3.14 2.501 5.34 5.621 5.34 3.1 0 5.6-2.2 5.6-5.34 0-3.12-2.5-5.34-5.62-5.34-3.1 0-5.6 2.22-5.6 5.34Zm2.581 0c0-1.88 1.38-3.18 3.04-3.18 1.64 0 3.02 1.3 3.02 3.18 0 1.9-1.38 3.18-3.02 3.18-1.66 0-3.04-1.28-3.04-3.18Zm10.48 5.1h2.54v-4.68c0-.48.04-.94.18-1.36.38-1.22 1.38-2.08 2.74-2.08 1.3 0 1.62.84 1.62 2.08V24h2.52v-6.56c0-2.7-1.28-3.88-3.54-3.88-2.06 0-3.18 1.26-3.62 2.12h-.04s.04-.32.04-.7V13.8h-2.44V24Zm12.065-11.94h2.52V9.8h-2.52v2.26Zm0 11.94h2.54V13.8h-2.54V24Zm4.392-5.1c0 2.96 2.16 5.34 5.54 5.34 2.74 0 4.2-1.66 4.2-1.66l-.98-1.8s-1.28 1.3-3 1.3c-1.94 0-3.18-1.48-3.18-3.2 0-1.74 1.22-3.16 3.1-3.16 1.6 0 2.66 1.1 2.66 1.1l1.12-1.74s-1.26-1.52-3.92-1.52c-3.38 0-5.54 2.44-5.54 5.34Z" fill="#181C32"/></g><defs><linearGradient id="b" x1="16.897" y1="18.625" x2="24.004" y2="20.83" gradientUnits="userSpaceOnUse"><stop stop-color="#18175A" stop-opacity=".42"/><stop offset=".911" stop-color="#65719B" stop-opacity="0"/></linearGradient><clipPath id="a"><path fill="#fff" d="M0 0h138v34H0z"/></clipPath></defs></svg>