<svg width="173" height="171" fill="none" xmlns="http://www.w3.org/2000/svg"><path d="M75.816 4.304a24 24 0 0 1 18.368 0l41.736 17.288a23.999 23.999 0 0 1 12.988 12.988l17.288 41.736a23.999 23.999 0 0 1 0 18.368l-17.288 41.736a23.996 23.996 0 0 1-12.988 12.988l-41.736 17.288a23.999 23.999 0 0 1-18.368 0L34.08 149.408a23.999 23.999 0 0 1-12.988-12.988L3.804 94.684a24 24 0 0 1 0-18.368L21.092 34.58A24 24 0 0 1 34.08 21.592L75.816 4.304Z" fill="#FCFAFF"/><path d="M78.877 23.036a16 16 0 0 1 12.246 0l33.716 13.966a16.001 16.001 0 0 1 8.659 8.659l13.966 33.716a15.999 15.999 0 0 1 0 12.246l-13.966 33.716a16.003 16.003 0 0 1-8.659 8.659l-33.716 13.966a15.999 15.999 0 0 1-12.246 0l-33.716-13.966a16.001 16.001 0 0 1-8.66-8.659L22.537 91.623a16 16 0 0 1 0-12.246l13.966-33.716a16 16 0 0 1 8.659-8.66l33.716-13.965Z" fill="#F8F6FF"/><path d="M79.642 52.72a14 14 0 0 1 10.716 0l14.033 5.812a13.999 13.999 0 0 1 7.577 7.577l5.813 14.033a14 14 0 0 1 0 10.716l-5.813 14.033a13.998 13.998 0 0 1-7.577 7.577l-14.033 5.813a14 14 0 0 1-10.716 0l-14.033-5.813a13.999 13.999 0 0 1-7.577-7.577L52.22 90.858a14 14 0 0 1 0-10.716l5.813-14.033a14 14 0 0 1 7.577-7.577l14.033-5.813Z" fill="#ECE7FF"/><g clip-path="url(#a)"><path d="M97.764 87.026c0 7.719-6.258 13.976-13.977 13.976-1.894 0-3.7-.376-5.345-1.059-4.5-1.864-7.815-6.01-8.5-10.996a14.006 14.006 0 0 1-.132-1.921c0-7.72 6.258-13.977 13.977-13.977s13.977 6.257 13.977 13.977Z" fill="#937DE2"/><path d="M83.787 73.049c-.74 0-1.465.057-2.173.168 6.688 1.043 11.805 6.828 11.805 13.809 0 6.98-5.117 12.764-11.803 13.808.707.11 1.432.168 2.17.168 7.72 0 13.978-6.257 13.978-13.976 0-7.72-6.258-13.977-13.977-13.977Z" fill="#7570D6"/><path d="m99.509 85.993-7.982 5.285a2.718 2.718 0 0 1-1.93.418 2.727 2.727 0 0 0-1.936.418l-1.068.707-5.981-8.817 1.467-6.34a6.608 6.608 0 0 0-.93-5.146 1.58 1.58 0 0 1 .446-2.193 1.582 1.582 0 0 1 1.975.184l.95.92a10.165 10.165 0 0 1 2.453 3.76l.516 1.388 5.309-3.507a1.81 1.81 0 0 1 2.536.552c.522.837.254 1.942-.568 2.487-.01.007-.01.017-.008.025.005.009.015.015.026.01a1.821 1.821 0 0 1 1.633.17 1.81 1.81 0 0 1 .032 3.018.039.039 0 0 0-.01.054l.002.001c.011.016.034.02.051.01a1.909 1.909 0 0 1 1.46.244c.206.131.388.305.528.518a1.81 1.81 0 0 1-.572 2.55c-.011.01-.015.025-.009.035a.017.017 0 0 0 .007.007c.01.007.024.008.036-.002a1.773 1.773 0 0 1 1.536.198c.209.134.394.314.54.536a1.81 1.81 0 0 1-.51 2.51Z" fill="#FDD7BD"/><path d="m86.67 94.495-3.367 2.23-4.861 3.219c-4.5-1.865-7.815-6.011-8.5-10.997l5.64-3.736 3.435-2.274a.859.859 0 0 1 1.19.243l6.705 10.123a.86.86 0 0 1-.242 1.192Z" fill="#87DBFF"/><path d="m86.67 94.495-3.367 2.23-7.72-11.514 3.434-2.274a.859.859 0 0 1 1.19.243l6.705 10.123a.86.86 0 0 1-.242 1.192Z" fill="#6FC7FF"/><path d="m96.418 76.315-2.656 1.42a.86.86 0 0 1-1.097-.246l2.093-1.355c.005.01.015.015.026.01a1.823 1.823 0 0 1 1.633.17Zm1.534 3.326-2.598 1.39a.86.86 0 0 1-1.097-.247l2.094-1.354.09-.043a.037.037 0 0 0 .05.01 1.905 1.905 0 0 1 1.46.244Zm1.526 3.306-2.289 1.224a.86.86 0 0 1-1.097-.246l1.814-1.174a.03.03 0 0 0 .036-.001 1.772 1.772 0 0 1 1.536.197Z" fill="#FAC5AA"/><path d="M100.433 83.209a2.292 2.292 0 0 0-1.42-.977 2.31 2.31 0 0 0-.118-2.347 2.3 2.3 0 0 0-1.419-.976 2.315 2.315 0 0 0-.119-2.349 2.29 2.29 0 0 0-1.42-.977 2.31 2.31 0 0 0-.118-2.347 2.31 2.31 0 0 0-3.199-.65l-2.297 1.522a14.357 14.357 0 0 0-3.879-1.313 10.667 10.667 0 0 0-1.48-1.79l-.95-.922a2.092 2.092 0 0 0-2.596-.24 2.082 2.082 0 0 0-.586 2.882l.074.114a14.48 14.48 0 0 0-11.458 16.176c.697 5.063 4.07 9.427 8.803 11.388a14.375 14.375 0 0 0 5.535 1.097c3.037 0 5.943-.93 8.406-2.689a14.436 14.436 0 0 0 5.213-6.869.497.497 0 1 0-.936-.338 13.444 13.444 0 0 1-4.856 6.397 13.387 13.387 0 0 1-7.827 2.504c-1.462 0-2.89-.231-4.255-.686l4.048-2.68v-.001h.001l3.365-2.229c.302-.2.508-.506.58-.86a1.347 1.347 0 0 0-.198-1.02l-.044-.068.653-.433a2.217 2.217 0 0 1 1.58-.341c.8.128 1.611-.047 2.286-.494l5.42-3.59c-.036.47-.097.938-.182 1.397a.497.497 0 1 0 .978.182c.138-.742.217-1.502.238-2.263l1.527-1.012c.514-.34.865-.86.988-1.464a2.298 2.298 0 0 0-.338-1.734Zm-11.076-8.462-1.52 1.007-.3-.806a10.642 10.642 0 0 0-.427-.989c.772.195 1.523.46 2.247.788ZM73.6 78.198a13.48 13.48 0 0 1 7.78-4.436 6.148 6.148 0 0 1 .31 3.723l-1.213 5.24a1.345 1.345 0 0 0-.716-.4 1.346 1.346 0 0 0-1.02.198l-3.436 2.276h-.001l-4.956 3.282a13.476 13.476 0 0 1 3.252-9.883ZM86.55 93.85a.36.36 0 0 1-.156.23l-2.955 1.956-5.484-8.18a.498.498 0 0 0-.827.555l5.481 8.175-4.218 2.794a13.521 13.521 0 0 1-7.913-10.212l4.962-3.275.571.852a.498.498 0 0 0 .827-.554l-.567-.846 3.02-1.993a.36.36 0 0 1 .502.102l6.704 10.124c.053.08.072.177.052.272Zm13.244-9.106c-.07.344-.269.64-.561.834l-1.747 1.156-.001.001-6.234 4.128a2.215 2.215 0 0 1-1.579.341 3.21 3.21 0 0 0-2.286.495l-.654.433-5.491-8.292 1.42-6.132a7.148 7.148 0 0 0-1-5.533 1.086 1.086 0 0 1 .305-1.503 1.09 1.09 0 0 1 1.354.126l.95.921a9.723 9.723 0 0 1 2.333 3.575l.518 1.395.003.007.004.01a.49.49 0 0 0 .045.085.5.5 0 0 0 .69.14l5.306-3.515a1.314 1.314 0 0 1 1.45 2.189l-.461.305-1.028.681-.004.003a.497.497 0 0 0 .553.827l1.029-.681a1.308 1.308 0 0 1 1.818.37c.194.292.262.643.192.986-.07.344-.269.64-.561.833l-1.489.986a.497.497 0 1 0 .55.83l.23-.153.797-.528c.604-.4 1.42-.233 1.82.37.4.604.233 1.42-.37 1.82l-.744.492-.012.008-.733.486a.497.497 0 1 0 .55.83l.23-.153.797-.528a1.31 1.31 0 0 1 2.011 1.355Z" fill="#000"/></g><path d="M12.658 31.3c-.113 1.752-1.524 3.858.17 5.336 1.467 1.259 3.302.328 4.967.438 1.834.137 1.044 1.779.818 2.983-.169.902-.254 1.887.17 2.763.677 1.368 2.512 2.244 3.866 1.259.847-.63 0-2.052-.846-1.423-1.383 1.012-1.666-1.423-1.524-2.162.14-.793.423-1.587.451-2.408.028-1.149-.593-2.052-1.693-2.435-1.355-.465-2.569.055-3.923.027-2.456-.054-.819-2.955-.734-4.378.056-1.067-1.637-1.067-1.722 0Zm10.171 1.62c-.683 1.472-1.339 3.218-.246 4.69.41.546.956.873 1.612.982.437.055 1.01-.136 1.393.028.629.245.984.982.683 1.636-.464.955.957 1.773 1.421.819.574-1.228.355-2.646-.738-3.546-.6-.491-1.147-.491-1.885-.573-1.994-.191-1.448-1.855-.82-3.191.438-.955-.983-1.8-1.42-.846Z" fill="#FF9C07"/><path d="M167.67 61.35c-.169-2.003 2.356-3.131 3.422-1.24.898 1.636-.87 3.075-2.412 2.539-1.01-.367-1.459 1.27-.449 1.636 3.113 1.13 6.059-2.426 4.179-5.248-2.019-3.02-6.704-1.242-6.395 2.314.056 1.072 1.739 1.1 1.655 0Z" fill="#4AD7B5"/><path clip-rule="evenodd" d="m58.73 141.89-3.27-1.161-2.889 1.771.19-3.194L50 137.332l3.397-.813 1.206-3.019 1.905 2.729 3.492.116-2.222 2.468.952 3.077Z" stroke="#6FC7FF" stroke-width="1.2"/><defs><clipPath id="a"><path fill="#fff" transform="translate(69 69.5)" d="M0 0h32v32H0z"/></clipPath></defs></svg>