<svg width="121" height="24" fill="none" xmlns="http://www.w3.org/2000/svg"><g clip-path="url(#a)"><path d="M39.55 19h2.58l.6-7.94c.06-.94.02-2.22.02-2.22h.04s.44 1.4.78 2.22l2.28 5.5h2.26l2.3-5.5c.34-.82.76-2.2.76-2.2h.04s-.04 1.26.02 2.2l.6 7.94h2.56L53.25 4.8h-2.76l-2.78 7.02c-.32.84-.7 2.08-.7 2.08h-.04s-.4-1.24-.72-2.08L43.47 4.8h-2.76L39.55 19Zm16.679-5.1c0 2.9 2.1 5.34 5.48 5.34 2.54 0 4.1-1.46 4.1-1.46l-.98-1.82s-1.3 1.12-2.94 1.12c-1.52 0-2.9-.92-3.06-2.7h7.04s.06-.68.06-.98c0-2.7-1.58-4.84-4.52-4.84-3.04 0-5.18 2.2-5.18 5.34Zm2.68-1.26c.24-1.32 1.14-2.12 2.44-2.12 1.12 0 1.98.74 2.02 2.12h-4.46Zm9.354 2.62c0 3.42 2.82 3.84 4.24 3.84.48 0 .78-.06.78-.06v-2.22s-.18.04-.46.04c-.7 0-2.02-.24-2.02-1.92v-3.96h2.32V8.96h-2.32V6.02h-2.48v2.94h-1.38v2.02h1.32v4.28Zm6.9 3.74h2.54v-4.04c0-.6.06-1.16.22-1.66.48-1.52 1.7-2.14 2.78-2.14.34 0 .6.04.6.04V8.7s-.22-.04-.46-.04c-1.56 0-2.78 1.16-3.24 2.62h-.04s.04-.34.04-.72V8.8h-2.44V19Zm6.89-5.1c0 3.14 2.5 5.34 5.62 5.34 3.1 0 5.6-2.2 5.6-5.34 0-3.12-2.5-5.34-5.62-5.34-3.1 0-5.6 2.22-5.6 5.34Zm2.58 0c0-1.88 1.38-3.18 3.04-3.18 1.64 0 3.02 1.3 3.02 3.18 0 1.9-1.38 3.18-3.02 3.18-1.66 0-3.04-1.28-3.04-3.18Zm10.48 5.1h2.54v-4.68c0-.48.04-.94.18-1.36.38-1.22 1.38-2.08 2.741-2.08 1.3 0 1.62.84 1.62 2.08V19h2.52v-6.56c0-2.7-1.28-3.88-3.54-3.88-2.06 0-3.18 1.26-3.62 2.12h-.04s.04-.32.04-.7V8.8h-2.44V19ZM107.18 7.06h2.52V4.8h-2.52v2.26Zm0 11.94h2.54V8.8h-2.54V19Zm4.392-5.1c0 2.96 2.16 5.34 5.54 5.34 2.74 0 4.2-1.66 4.2-1.66l-.98-1.8s-1.28 1.3-3 1.3c-1.94 0-3.18-1.48-3.18-3.2 0-1.74 1.22-3.16 3.1-3.16 1.6 0 2.66 1.1 2.66 1.1l1.12-1.74s-1.26-1.52-3.92-1.52c-3.38 0-5.54 2.44-5.54 5.34Z" fill="#fff"/><path d="m26.25 1.204 6.665 20.531c.363 1.12-.48 2.265-1.67 2.265h-4.9c-.765 0-1.44-.49-1.672-1.21l-6.59-20.53C17.726 1.14 18.569 0 19.755 0h4.826c.762 0 1.436.487 1.67 1.204Z" fill="#F1416C"/><g filter="url(#b)"><path d="m19.779 16.39-4.35-14.895C15.168.605 14.397 0 13.525 0c-1.062 0-1.937.889-1.991 2.022l-.53 11.132c-.02.396.025.792.131 1.171l2.362 8.438c.205.734.837 1.237 1.554 1.237h2.196c.706 0 1.331-.488 1.546-1.207l.976-3.273a5.545 5.545 0 0 0 .009-3.13Z" fill="#F4F4F4"/><path d="m19.779 16.39-4.35-14.895C15.168.605 14.397 0 13.525 0c-1.062 0-1.937.889-1.991 2.022l-.53 11.132c-.02.396.025.792.131 1.171l2.362 8.438c.205.734.837 1.237 1.554 1.237h2.196c.706 0 1.331-.488 1.546-1.207l.976-3.273a5.545 5.545 0 0 0 .009-3.13Z" fill="url(#c)"/></g><path d="M8.798 0h4.549c1.114 0 1.908 1.126 1.577 2.234L8.78 22.79c-.215.72-.854 1.21-1.577 1.21h-4.55c-1.114 0-1.908-1.125-1.577-2.234L7.22 1.21C7.436.49 8.075 0 8.798 0Z" fill="#F1416C"/></g><defs><linearGradient id="c" x1="12.66" y1="10.623" x2="20.858" y2="12.924" gradientUnits="userSpaceOnUse"><stop stop-opacity=".2"/><stop offset=".911" stop-color="#fff" stop-opacity="0"/></linearGradient><clipPath id="a"><path fill="#fff" d="M0 0h121v24H0z"/></clipPath><filter id="b" x="7" y="0" width="13" height="27" filterUnits="userSpaceOnUse" color-interpolation-filters="sRGB"><feFlood flood-opacity="0" result="BackgroundImageFix"/><feBlend in="SourceGraphic" in2="BackgroundImageFix" result="shape"/><feColorMatrix in="SourceAlpha" values="0 0 0 0 0 0 0 0 0 0 0 0 0 0 0 0 0 0 127 0" result="hardAlpha"/><feOffset dx="-4" dy="3"/><feGaussianBlur stdDeviation="2"/><feComposite in2="hardAlpha" operator="arithmetic" k2="-1" k3="1"/><feColorMatrix values="0 0 0 0 0.904167 0 0 0 0 0.892865 0 0 0 0 0.892865 0 0 0 0.4 0"/><feBlend in2="shape" result="effect1_innerShadow_2427_1513"/></filter></defs></svg>