<svg width="88" height="144" fill="none" xmlns="http://www.w3.org/2000/svg"><g clip-path="url(#a)"><path d="M12.736 8c-1.278 0-2.524.45-3.404 1.328C8.45 10.203 8 11.458 8 12.732v118.174c0 1.274.45 2.52 1.332 3.402.88.882 2.126 1.332 3.404 1.332h63.216c1.274 0 2.53-.45 3.402-1.332.884-.882 1.332-2.128 1.332-3.402V12.732c0-1.274-.45-2.529-1.332-3.404C78.483 8.448 77.226 8 75.952 8h-9.76c-.768 0-1.452.459-1.742 1.17l-1.455 3.562c-.47 1.165-.842 1.735-1.436 2.12-.58.395-1.611.722-3.636.722H30.761c-2.023 0-3.055-.329-3.636-.721-.59-.384-.967-.954-1.435-2.12L24.238 9.17A1.868 1.868 0 0 0 22.512 8h-9.776Z" fill="#9EDCFF"/><path d="M12.165 4.176h63.781c4.605 0 8.239 3.654 8.239 8.25v119.221c0 4.593-3.636 8.251-8.239 8.251H12.165c-4.6 0-8.24-3.658-8.24-8.251V12.425c.001-4.593 3.64-8.249 8.24-8.249Zm0-3.731C5.559.445.185 5.819.185 12.425v119.222c0 6.609 5.374 11.98 11.98 11.98h63.781c6.61 0 11.99-5.371 11.99-11.98V12.425c0-6.606-5.38-11.98-11.99-11.98H12.165Z" fill="#7E94B5"/><path d="M38.023 8.217a1.865 1.865 0 0 0-1.873 1.874c0 1.04.831 1.875 1.873 1.875h13.013a1.876 1.876 0 1 0 0-3.749H38.023Z" fill="#B5B5C3"/></g><defs><clipPath id="a"><path fill="#fff" d="M0 0h88v144H0z"/></clipPath></defs></svg>