<svg width="32" height="33" fill="none" xmlns="http://www.w3.org/2000/svg"><g clip-path="url(#a)"><path d="m17.294 25.034-6.263 6.244c-.187.113-.431.394-.937.244-.263-.094-.582-.394-.638-.731v-.019l-1.8-10.762 1.463-1.107 3.58 2.1 4.595 2.7a.963.963 0 0 1 0 1.331Z" fill="#009AE4"/><path d="m31.982 2.56-5.688 28.25a.919.919 0 0 1-.582.675.736.736 0 0 1-.337.075.977.977 0 0 1-.544-.17l-13.125-9.374C3.341 17.872 7.705 20.05.525 16.466A.953.953 0 0 1 0 15.603a.952.952 0 0 1 .563-.843L30.688 1.51c.319-.131.694-.094.956.131l.132.132a.93.93 0 0 1 .206.787Z" fill="#25D9F8"/><path d="M31.776 1.772 12.7 21.003l-.993 1.013-1.613 9.506c-.262-.094-.581-.394-.637-.731v-.02l-1.8-10.762 1.462-1.106 22.657-17.13Z" fill="#00C0F1"/></g><defs><clipPath id="a"><path fill="#fff" transform="translate(0 .5)" d="M0 0h32v32H0z"/></clipPath></defs></svg>