<svg width="173" height="171" viewBox="0 0 173 171" fill="none" xmlns="http://www.w3.org/2000/svg">
<path d="M75.8156 4.30431C81.6963 1.86845 88.3037 1.86845 94.1844 4.3043L135.92 21.5916C141.8 24.0275 146.473 28.6997 148.908 34.5803L166.196 76.3156C168.632 82.1963 168.632 88.8037 166.196 94.6844L148.908 136.42C146.473 142.3 141.8 146.973 135.92 149.408L94.1844 166.696C88.3037 169.132 81.6963 169.132 75.8156 166.696L34.0803 149.408C28.1997 146.973 23.5275 142.3 21.0916 136.42L3.80431 94.6844C1.36845 88.8037 1.36845 82.1963 3.8043 76.3156L21.0916 34.5803C23.5275 28.6997 28.1997 24.0275 34.0803 21.5916L75.8156 4.30431Z" fill="#FCFAFF"/>
<path d="M78.8771 23.0362C82.7975 21.4123 87.2025 21.4123 91.1229 23.0362L124.839 37.0019C128.759 38.6258 131.874 41.7405 133.498 45.661L147.464 79.3771C149.088 83.2975 149.088 87.7025 147.464 91.6229L133.498 125.339C131.874 129.259 128.759 132.374 124.839 133.998L91.1229 147.964C87.2025 149.588 82.7975 149.588 78.8771 147.964L45.161 133.998C41.2405 132.374 38.1258 129.259 36.5019 125.339L22.5362 91.6229C20.9123 87.7025 20.9123 83.2975 22.5362 79.3771L36.5019 45.661C38.1258 41.7405 41.2405 38.6258 45.161 37.0019L78.8771 23.0362Z" fill="#F8F6FF"/>
<path d="M79.6424 52.7192C83.0728 51.2983 86.9272 51.2983 90.3576 52.7192L104.391 58.5321C107.822 59.953 110.547 62.6784 111.968 66.1088L117.781 80.1424C119.202 83.5728 119.202 87.4272 117.781 90.8576L111.968 104.891C110.547 108.322 107.822 111.047 104.391 112.468L90.3576 118.281C86.9272 119.702 83.0728 119.702 79.6424 118.281L65.6088 112.468C62.1784 111.047 59.453 108.322 58.0321 104.891L52.2192 90.8576C50.7983 87.4272 50.7983 83.5728 52.2192 80.1424L58.0321 66.1088C59.453 62.6784 62.1784 59.953 65.6088 58.5321L79.6424 52.7192Z" fill="#ECE7FF"/>
<g clip-path="url(#clip0_465_13929)">
<path d="M97.7639 87.0259C97.7639 94.7449 91.5056 101.002 83.7866 101.002C81.8931 101.002 80.0879 100.626 78.4417 99.9434C73.9414 98.0794 70.6267 93.9324 69.9414 88.9468C69.8545 88.3191 69.8101 87.6775 69.8101 87.0259C69.8101 79.3062 76.0676 73.0486 83.7866 73.0486C91.5056 73.0486 97.7639 79.3062 97.7639 87.0259Z" fill="#937DE2"/>
<path d="M83.7866 73.0486C83.0476 73.0486 82.3223 73.1064 81.6143 73.2168C88.3018 74.2605 93.4194 80.0452 93.4194 87.0259C93.4194 94.0056 88.3023 99.7901 81.6155 100.834C82.323 100.944 83.0479 101.002 83.7866 101.002C91.5056 101.002 97.7639 94.7449 97.7639 87.0259C97.7639 79.3062 91.5056 73.0486 83.7866 73.0486Z" fill="#7570D6"/>
<path d="M99.5088 85.9925L91.5274 91.2776C90.9587 91.6544 90.27 91.8038 89.5967 91.6961C88.9219 91.5887 88.2315 91.7361 87.6614 92.1136L86.5933 92.8214L80.6116 84.0042L82.0791 77.6641C82.1934 77.1707 82.2498 76.6705 82.2498 76.1722C82.2498 74.8831 81.8728 73.6106 81.1497 72.5184C80.9719 72.2498 80.887 71.9458 80.887 71.646C80.887 71.1331 81.1357 70.6302 81.5955 70.3257C82.2151 69.9151 83.0364 69.9915 83.5698 70.5088L84.5205 71.4297C85.6079 72.4847 86.4465 73.7691 86.9734 75.1895L87.489 76.5774L92.7979 73.0699C93.6458 72.5086 94.793 72.754 95.3342 73.6224C95.8565 74.459 95.5884 75.5645 94.7656 76.1092C94.7556 76.1158 94.7551 76.1263 94.7583 76.1343C94.7629 76.1429 94.773 76.149 94.7842 76.1443C94.9939 76.0633 95.2134 76.0242 95.4312 76.0242C95.7786 76.0242 96.1231 76.1243 96.4177 76.3147C96.6206 76.4461 96.8003 76.6207 96.9424 76.8348C97.2163 77.2488 97.2981 77.7344 97.2085 78.1856C97.0676 78.8968 96.551 79.263 96.4495 79.3321C96.4321 79.344 96.4275 79.3677 96.4395 79.3858C96.4395 79.3865 96.4402 79.387 96.4409 79.387C96.4522 79.4031 96.4754 79.4078 96.492 79.397C96.6365 79.3619 96.7837 79.3453 96.9312 79.3453C97.2905 79.3453 97.6482 79.4476 97.9522 79.6412C98.1577 79.7725 98.3396 79.9463 98.4802 80.1592C99.0322 80.9925 98.804 82.1158 97.97 82.6678C97.9495 82.6817 97.929 82.6956 97.9085 82.7088C97.8965 82.7183 97.8931 82.7335 97.8992 82.7442C97.9004 82.7466 97.9031 82.7493 97.9058 82.7508C97.9151 82.7581 97.9297 82.7586 97.9417 82.7493C98.4597 82.5728 99.0237 82.6531 99.4776 82.9471C99.6865 83.0811 99.8716 83.2615 100.018 83.4832C100.57 84.3174 100.342 85.4405 99.5088 85.9925Z" fill="#FDD7BD"/>
<path d="M86.6697 94.4947L83.3027 96.7245L78.4417 99.9437C73.9414 98.0794 70.6267 93.9327 69.9414 88.9469L75.5828 85.211L79.0169 82.9368C79.4121 82.6746 79.9456 82.7835 80.2075 83.1795L86.9124 93.3031C87.1746 93.6993 87.0657 94.232 86.6697 94.4947Z" fill="#87DBFF"/>
<path d="M86.6697 94.4947L83.3027 96.7245L75.5828 85.211L79.0168 82.9368C79.4121 82.6746 79.9456 82.7835 80.2075 83.1795L86.9124 93.3031C87.1746 93.6993 87.0657 94.232 86.6697 94.4947Z" fill="#6FC7FF"/>
<path d="M96.4177 76.3147L93.762 77.7358C93.385 77.937 92.918 77.832 92.6646 77.489L94.7583 76.1343C94.7629 76.1431 94.773 76.1489 94.7842 76.1443C94.9939 76.0632 95.2134 76.0242 95.4312 76.0242C95.7788 76.0242 96.123 76.1245 96.4177 76.3147Z" fill="#FAC5AA"/>
<path d="M97.9522 79.6414L95.3542 81.0305C94.9773 81.2322 94.5103 81.1274 94.2568 80.7844L96.3506 79.4297L96.4409 79.3872C96.4521 79.4033 96.4753 79.408 96.4919 79.3972C96.6367 79.3621 96.7839 79.3455 96.9312 79.3455C97.2908 79.3455 97.6484 79.4475 97.9522 79.6414Z" fill="#FAC5AA"/>
<path d="M99.4775 82.9473L97.1892 84.1714C96.8132 84.3724 96.3459 84.2676 96.092 83.9246L97.9058 82.751C97.915 82.7583 97.9297 82.7588 97.9417 82.7496C98.4597 82.573 99.0237 82.6534 99.4775 82.9473Z" fill="#FAC5AA"/>
<path d="M100.433 83.2087C100.101 82.7078 99.5984 82.3625 99.0137 82.2317C99.3909 81.5102 99.3755 80.6101 98.895 79.8848C98.5532 79.3684 98.0376 79.0349 97.4763 78.9087C97.5764 78.7178 97.6504 78.5117 97.6946 78.2944C97.8172 77.6902 97.6975 77.0744 97.357 76.5605C97.0252 76.0593 96.5222 75.7141 95.9375 75.5835C96.3147 74.862 96.2993 73.9619 95.8189 73.2363C95.1165 72.1755 93.6814 71.8838 92.6204 72.5864L90.323 74.1079C89.0984 73.4868 87.7959 73.0461 86.4441 72.7951C86.0169 72.1465 85.52 71.5434 84.9639 71.0044L84.0134 70.0832C83.3174 69.4084 82.2258 69.3071 81.4177 69.8425C80.4617 70.4756 80.199 71.7685 80.832 72.7246C80.8569 72.7624 80.8814 72.8005 80.9055 72.8386C77.79 73.469 74.9507 75.1223 72.8491 77.5449C70.5686 80.1741 69.3125 83.5412 69.3125 87.0261C69.3125 87.6941 69.3582 88.3633 69.4485 89.0146C70.1445 94.0784 73.5176 98.4421 78.251 100.403C80.0064 101.131 81.8689 101.5 83.7861 101.5C86.8225 101.5 89.729 100.57 92.1917 98.811C94.6008 97.0898 96.4033 94.7146 97.4046 91.9421C97.4981 91.6838 97.364 91.3984 97.1057 91.3052C96.8472 91.2119 96.562 91.3457 96.4688 91.6042C95.5364 94.186 93.8574 96.3979 91.6131 98.0012C89.3203 99.6392 86.6138 100.505 83.7861 100.505C82.3242 100.505 80.8967 100.274 79.5305 99.8191L83.5789 97.1382C83.5791 97.1379 83.5794 97.1379 83.5796 97.1377C83.5798 97.1377 83.5798 97.1374 83.5801 97.1372L86.9446 94.9092H86.9448C87.2468 94.709 87.4531 94.4033 87.5254 94.0481C87.5977 93.6929 87.5274 93.3306 87.3272 93.0286L87.2827 92.9612L87.9363 92.5283C88.4026 92.2195 88.9634 92.0984 89.5156 92.187C90.3152 92.3154 91.1272 92.1396 91.802 91.6926L97.2229 88.1028C97.1858 88.573 97.1248 89.0405 97.0396 89.5002C96.9893 89.7705 97.1677 90.0303 97.438 90.0803C97.4685 90.0862 97.4993 90.0889 97.5293 90.0889C97.7644 90.0889 97.9734 89.9214 98.0178 89.6819C98.1558 88.9399 98.2351 88.1799 98.2556 87.4189L99.7832 86.4072C100.297 86.0669 100.648 85.5466 100.771 84.9426C100.893 84.3384 100.773 83.7226 100.433 83.2087ZM89.3569 74.7475L87.8367 75.7544L87.5374 74.948C87.4124 74.6116 87.2691 74.2817 87.1104 73.959C87.8816 74.1545 88.6326 74.4182 89.3569 74.7475ZM73.6008 78.197C75.6206 75.8686 78.3718 74.3034 81.3816 73.7607C81.8645 74.9306 81.9802 76.2378 81.6917 77.4836L80.4785 82.7246C80.2878 82.521 80.0403 82.3806 79.7615 82.324C79.406 82.2515 79.044 82.322 78.742 82.5222L75.3057 84.7976C75.3054 84.7976 75.3054 84.7976 75.3052 84.7978C75.3052 84.7978 75.3049 84.7978 75.3049 84.7981L70.3489 88.0801C70.3218 87.7305 70.3076 87.3782 70.3076 87.0261C70.3076 83.781 71.4773 80.6452 73.6008 78.197ZM86.5503 93.8496C86.531 93.9443 86.4758 94.0261 86.395 94.0796H86.3953L83.4402 96.0364L77.9556 87.8569C77.8025 87.6287 77.4934 87.5679 77.2651 87.7209C77.0371 87.874 76.9761 88.1829 77.1292 88.4111L82.6104 96.5859L78.3919 99.3796C74.2 97.5461 71.2002 93.6741 70.479 89.1684L75.4409 85.8933L76.012 86.7453C76.1082 86.8884 76.2654 86.9658 76.4258 86.9658C76.521 86.9658 76.6174 86.9387 76.7024 86.8816C76.9307 86.7285 76.9917 86.4194 76.8386 86.1912L76.2715 85.3452L79.2915 83.3518C79.3718 83.2983 79.4683 83.2798 79.563 83.2991C79.6577 83.3183 79.7395 83.3735 79.793 83.4541L86.4976 93.5781C86.5508 93.6584 86.5696 93.7549 86.5503 93.8496ZM99.7954 84.7444C99.7256 85.0881 99.5261 85.384 99.2337 85.5776L97.4873 86.7341C97.4868 86.7344 97.4863 86.7349 97.4856 86.7351L91.2525 90.863C90.7861 91.1719 90.2254 91.2932 89.6731 91.2043C88.8738 91.0762 88.0618 91.2517 87.3867 91.6987L86.7332 92.1316L81.242 83.8398L82.6614 77.7082C83.0269 76.1286 82.8342 74.4648 82.1379 73.0154C82.1316 73.0002 82.1248 72.9856 82.117 72.9712C81.9832 72.6972 81.8313 72.4314 81.6616 72.175C81.3316 71.6765 81.4685 71.0024 81.9673 70.6721C82.3887 70.393 82.958 70.4458 83.3208 70.7976L84.2713 71.719C85.2993 72.7158 86.1062 73.9521 86.6043 75.2944L87.1218 76.6887C87.1228 76.6914 87.1238 76.6936 87.1248 76.696C87.126 76.6992 87.1275 76.7026 87.1287 76.7058C87.1323 76.7143 87.1358 76.7222 87.1394 76.7287C87.1494 76.7497 87.1604 76.7705 87.1736 76.7903C87.3255 77.0195 87.634 77.0823 87.8631 76.9304L93.1699 73.4162C93.7735 73.0166 94.5896 73.1824 94.9893 73.7859C95.3889 74.3894 95.2232 75.2055 94.6196 75.6052L94.159 75.9104C94.159 75.9104 94.1587 75.9104 94.1585 75.9106L93.1309 76.5913C93.1294 76.5923 93.1284 76.5932 93.127 76.594C93.1211 76.5981 93.1155 76.602 93.1109 76.6059C92.8985 76.7619 92.8435 77.0586 92.9907 77.2807C93.1424 77.51 93.4512 77.5727 93.6804 77.4209L94.7088 76.7397C95.001 76.5466 95.3508 76.4785 95.6944 76.5483C96.0379 76.6181 96.334 76.8176 96.5274 77.1101C96.721 77.4023 96.7893 77.7527 96.7195 78.0962C96.6497 78.4399 96.4502 78.7358 96.1577 78.9294L94.669 79.9155C94.4397 80.0671 94.377 80.3757 94.5288 80.605C94.6245 80.7495 94.7827 80.8279 94.9441 80.8279C95.0383 80.8279 95.1338 80.801 95.2183 80.7451L95.4487 80.5925L96.2461 80.0644C96.8499 79.6648 97.6658 79.8306 98.0655 80.4341C98.4651 81.0378 98.2993 81.8537 97.6958 82.2536L96.9522 82.7461C96.9483 82.7485 96.9444 82.7512 96.9404 82.7539L96.2071 83.2395C95.9778 83.3911 95.9151 83.6999 96.0669 83.9292C96.1626 84.0737 96.3208 84.1521 96.4822 84.1521C96.5764 84.1521 96.6719 84.1252 96.7564 84.0693L96.9868 83.9167C96.9868 83.9167 96.9868 83.9165 96.9871 83.9165L97.7844 83.3887C98.0767 83.1951 98.4268 83.1267 98.7705 83.1968C99.1143 83.2663 99.4102 83.4661 99.6038 83.7583C99.7971 84.0505 99.8653 84.4009 99.7954 84.7444Z" fill="black"/>
</g>
<path d="M12.6583 31.3004C12.5454 33.0516 11.1343 35.1585 12.8276 36.6361C14.2952 37.8948 16.1297 36.9645 17.7949 37.0739C19.6294 37.2108 18.8392 38.8525 18.6134 40.0565C18.444 40.9595 18.3594 41.9445 18.7827 42.8202C19.4601 44.1883 21.2946 45.0639 22.6493 44.0788C23.496 43.4495 22.6493 42.0266 21.8026 42.656C20.4197 43.6684 20.1374 41.2331 20.2785 40.4943C20.4197 39.7008 20.7019 38.9073 20.7301 38.0864C20.7583 36.9371 20.1374 36.0342 19.0367 35.6511C17.682 35.1859 16.4684 35.7058 15.1137 35.6784C12.6583 35.6237 14.2952 32.7232 14.3799 31.3004C14.4364 30.2332 12.743 30.2332 12.6583 31.3004Z" fill="#FF9C07"/>
<path d="M22.8288 32.9192C22.1458 34.3921 21.4901 36.1377 22.5829 37.6105C22.9928 38.156 23.5392 38.4833 24.1949 38.5924C24.6321 38.647 25.2059 38.4561 25.5884 38.6197C26.2168 38.8652 26.572 39.6016 26.2714 40.2562C25.8069 41.2108 27.2277 42.0291 27.6922 41.0745C28.2659 39.8471 28.0474 38.4288 26.9545 37.5287C26.3534 37.0377 25.8069 37.0377 25.0693 36.9559C23.0747 36.765 23.6212 35.1012 24.2496 33.7647C24.6867 32.8101 23.266 31.9646 22.8288 32.9192Z" fill="#FF9C07"/>
<path d="M167.67 61.3508C167.501 59.3474 170.026 58.2187 171.092 60.1092C171.99 61.7458 170.222 63.1849 168.68 62.6488C167.67 62.282 167.221 63.9186 168.231 64.2854C171.344 65.4141 174.29 61.8587 172.41 59.037C170.391 56.0177 165.706 57.7954 166.015 61.3508C166.071 62.4231 167.754 62.4513 167.67 61.3508Z" fill="#4AD7B5"/>
<path fill-rule="evenodd" clip-rule="evenodd" d="M58.7302 141.89L55.4603 140.729L52.5714 142.5L52.7619 139.306L50 137.332L53.3968 136.519L54.6032 133.5L56.5079 136.229L60 136.345L57.7778 138.813L58.7302 141.89Z" stroke="#6FC7FF" stroke-width="1.2"/>
<defs>
<clipPath id="clip0_465_13929">
<rect width="32" height="32" fill="white" transform="translate(69 69.5)"/>
</clipPath>
</defs>
</svg>
