<svg width="138" height="34" viewBox="0 0 138 34" fill="none" xmlns="http://www.w3.org/2000/svg">
<g clip-path="url(#clip0_700_8408)">
<path d="M39.3323 3.47108L47.742 29.6557C48.3639 31.5921 46.9195 33.5731 44.8857 33.5731H40.7731C38.5946 33.5731 36.6669 32.1626 36.0076 30.0862L27.6955 3.90789C27.0812 1.9734 28.5251 0 30.5548 0H34.5718C36.7442 0 38.668 1.40274 39.3323 3.47108Z" fill="#FF5F6D"/>
<path d="M27.9648 22.1068L21.6677 1.93608C21.3081 0.78432 20.2416 0 19.035 0C17.3565 0 15.9725 1.31531 15.8871 2.99159L15.1295 17.8591C15.083 18.7711 15.193 19.6842 15.4547 20.559L18.7076 31.4329C19.0875 32.703 20.256 33.5731 21.5817 33.5731H24.0172C25.323 33.5731 26.4788 32.7285 26.8754 31.4844L27.9467 28.1246C28.5705 26.1681 28.5768 24.067 27.9648 22.1068Z" fill="white"/>
<path d="M27.9648 22.1068L21.6677 1.93608C21.3081 0.78432 20.2416 0 19.035 0C17.3565 0 15.9725 1.31531 15.8871 2.99159L15.1295 17.8591C15.083 18.7711 15.193 19.6842 15.4547 20.559L18.7076 31.4329C19.0875 32.703 20.256 33.5731 21.5817 33.5731H24.0172C25.323 33.5731 26.4788 32.7285 26.8754 31.4844L27.9467 28.1246C28.5705 26.1681 28.5768 24.067 27.9648 22.1068Z" fill="url(#paint0_linear_700_8408)" fill-opacity="0.6"/>
<path d="M14.9776 0H18.7282C20.7432 0 22.1853 1.94701 21.5979 3.87453L13.5522 30.2757C12.9109 32.3801 10.9694 33.8181 8.7694 33.8181H5.01884C3.0038 33.8181 1.56173 31.8711 2.14913 29.9436L10.1948 3.54245C10.8361 1.438 12.7776 0 14.9776 0Z" fill="#FF5F6D"/>
<path d="M55.5502 24H58.1302L58.7302 16.06C58.7902 15.12 58.7502 13.84 58.7502 13.84H58.7902C58.7902 13.84 59.2302 15.24 59.5702 16.06L61.8502 21.56H64.1102L66.4102 16.06C66.7502 15.24 67.1702 13.86 67.1702 13.86H67.2102C67.2102 13.86 67.1702 15.12 67.2302 16.06L67.8302 24H70.3902L69.2502 9.8H66.4902L63.7102 16.82C63.3902 17.66 63.0102 18.9 63.0102 18.9H62.9702C62.9702 18.9 62.5702 17.66 62.2502 16.82L59.4702 9.8H56.7102L55.5502 24ZM72.2288 18.9C72.2288 21.8 74.3288 24.24 77.7088 24.24C80.2488 24.24 81.8088 22.78 81.8088 22.78L80.8288 20.96C80.8288 20.96 79.5288 22.08 77.8888 22.08C76.3688 22.08 74.9888 21.16 74.8288 19.38H81.8688C81.8688 19.38 81.9288 18.7 81.9288 18.4C81.9288 15.7 80.3488 13.56 77.4088 13.56C74.3688 13.56 72.2288 15.76 72.2288 18.9ZM74.9088 17.64C75.1488 16.32 76.0488 15.52 77.3488 15.52C78.4688 15.52 79.3288 16.26 79.3688 17.64H74.9088ZM84.263 20.26C84.263 23.68 87.083 24.1 88.503 24.1C88.983 24.1 89.283 24.04 89.283 24.04V21.82C89.283 21.82 89.103 21.86 88.823 21.86C88.123 21.86 86.803 21.62 86.803 19.94V15.98H89.123V13.96H86.803V11.02H84.323V13.96H82.943V15.98H84.263V20.26ZM91.1621 24H93.7021V19.96C93.7021 19.36 93.7621 18.8 93.9221 18.3C94.4021 16.78 95.6221 16.16 96.7021 16.16C97.0421 16.16 97.3021 16.2 97.3021 16.2V13.7C97.3021 13.7 97.0821 13.66 96.8421 13.66C95.2821 13.66 94.0621 14.82 93.6021 16.28H93.5621C93.5621 16.28 93.6021 15.94 93.6021 15.56V13.8H91.1621V24ZM98.0537 18.9C98.0537 22.04 100.554 24.24 103.674 24.24C106.774 24.24 109.274 22.04 109.274 18.9C109.274 15.78 106.774 13.56 103.654 13.56C100.554 13.56 98.0537 15.78 98.0537 18.9ZM100.634 18.9C100.634 17.02 102.014 15.72 103.674 15.72C105.314 15.72 106.694 17.02 106.694 18.9C106.694 20.8 105.314 22.08 103.674 22.08C102.014 22.08 100.634 20.8 100.634 18.9ZM111.114 24H113.654V19.32C113.654 18.84 113.694 18.38 113.834 17.96C114.214 16.74 115.214 15.88 116.574 15.88C117.874 15.88 118.194 16.72 118.194 17.96V24H120.714V17.44C120.714 14.74 119.434 13.56 117.174 13.56C115.114 13.56 113.994 14.82 113.554 15.68H113.514C113.514 15.68 113.554 15.36 113.554 14.98V13.8H111.114V24ZM123.179 12.06H125.699V9.8H123.179V12.06ZM123.179 24H125.719V13.8H123.179V24ZM127.571 18.9C127.571 21.86 129.731 24.24 133.111 24.24C135.851 24.24 137.311 22.58 137.311 22.58L136.331 20.78C136.331 20.78 135.051 22.08 133.331 22.08C131.391 22.08 130.151 20.6 130.151 18.88C130.151 17.14 131.371 15.72 133.251 15.72C134.851 15.72 135.911 16.82 135.911 16.82L137.031 15.08C137.031 15.08 135.771 13.56 133.111 13.56C129.731 13.56 127.571 16 127.571 18.9Z" fill="#181C32"/>
</g>
<defs>
<linearGradient id="paint0_linear_700_8408" x1="16.8972" y1="18.6245" x2="24.0039" y2="20.83" gradientUnits="userSpaceOnUse">
<stop stop-color="#18175A" stop-opacity="0.42"/>
<stop offset="0.911458" stop-color="#65719B" stop-opacity="0"/>
</linearGradient>
<clipPath id="clip0_700_8408">
<rect width="138" height="34" fill="white"/>
</clipPath>
</defs>
</svg>
