<svg width="121" height="24" viewBox="0 0 121 24" fill="none" xmlns="http://www.w3.org/2000/svg">
<g clip-path="url(#clip0_2427_1513)">
<path d="M39.5502 19H42.1302L42.7302 11.06C42.7902 10.12 42.7502 8.84 42.7502 8.84H42.7902C42.7902 8.84 43.2302 10.24 43.5702 11.06L45.8502 16.56H48.1102L50.4102 11.06C50.7502 10.24 51.1702 8.86 51.1702 8.86H51.2102C51.2102 8.86 51.1702 10.12 51.2302 11.06L51.8302 19H54.3902L53.2502 4.8H50.4902L47.7102 11.82C47.3902 12.66 47.0102 13.9 47.0102 13.9H46.9702C46.9702 13.9 46.5702 12.66 46.2502 11.82L43.4702 4.8H40.7102L39.5502 19ZM56.2288 13.9C56.2288 16.8 58.3288 19.24 61.7088 19.24C64.2488 19.24 65.8088 17.78 65.8088 17.78L64.8288 15.96C64.8288 15.96 63.5288 17.08 61.8888 17.08C60.3688 17.08 58.9888 16.16 58.8288 14.38H65.8688C65.8688 14.38 65.9288 13.7 65.9288 13.4C65.9288 10.7 64.3488 8.56 61.4088 8.56C58.3688 8.56 56.2288 10.76 56.2288 13.9ZM58.9088 12.64C59.1488 11.32 60.0488 10.52 61.3488 10.52C62.4688 10.52 63.3288 11.26 63.3688 12.64H58.9088ZM68.263 15.26C68.263 18.68 71.083 19.1 72.503 19.1C72.983 19.1 73.283 19.04 73.283 19.04V16.82C73.283 16.82 73.103 16.86 72.823 16.86C72.123 16.86 70.803 16.62 70.803 14.94V10.98H73.123V8.96H70.803V6.02H68.323V8.96H66.943V10.98H68.263V15.26ZM75.1621 19H77.7021V14.96C77.7021 14.36 77.7621 13.8 77.9221 13.3C78.4021 11.78 79.6221 11.16 80.7021 11.16C81.0421 11.16 81.3021 11.2 81.3021 11.2V8.7C81.3021 8.7 81.0821 8.66 80.8421 8.66C79.2821 8.66 78.0621 9.82 77.6021 11.28H77.5621C77.5621 11.28 77.6021 10.94 77.6021 10.56V8.8H75.1621V19ZM82.0537 13.9C82.0537 17.04 84.5537 19.24 87.6737 19.24C90.7737 19.24 93.2737 17.04 93.2737 13.9C93.2737 10.78 90.7737 8.56 87.6537 8.56C84.5537 8.56 82.0537 10.78 82.0537 13.9ZM84.6337 13.9C84.6337 12.02 86.0137 10.72 87.6737 10.72C89.3137 10.72 90.6937 12.02 90.6937 13.9C90.6937 15.8 89.3137 17.08 87.6737 17.08C86.0137 17.08 84.6337 15.8 84.6337 13.9ZM95.1137 19H97.6537V14.32C97.6537 13.84 97.6937 13.38 97.8337 12.96C98.2137 11.74 99.2137 10.88 100.574 10.88C101.874 10.88 102.194 11.72 102.194 12.96V19H104.714V12.44C104.714 9.74 103.434 8.56 101.174 8.56C99.1137 8.56 97.9937 9.82 97.5537 10.68H97.5137C97.5137 10.68 97.5537 10.36 97.5537 9.98V8.8H95.1137V19ZM107.179 7.06H109.699V4.8H107.179V7.06ZM107.179 19H109.719V8.8H107.179V19ZM111.571 13.9C111.571 16.86 113.731 19.24 117.111 19.24C119.851 19.24 121.311 17.58 121.311 17.58L120.331 15.78C120.331 15.78 119.051 17.08 117.331 17.08C115.391 17.08 114.151 15.6 114.151 13.88C114.151 12.14 115.371 10.72 117.251 10.72C118.851 10.72 119.911 11.82 119.911 11.82L121.031 10.08C121.031 10.08 119.771 8.56 117.111 8.56C113.731 8.56 111.571 11 111.571 13.9Z" fill="white"/>
<path d="M26.2492 1.20398L32.9148 21.7354C33.2782 22.8548 32.4341 24 31.2456 24H26.3442C25.5803 24 24.9044 23.5107 24.6733 22.7906L18.0835 2.25916C17.7245 1.14083 18.5683 0 19.7544 0H24.58C25.3417 0 26.0163 0.486556 26.2492 1.20398Z" fill="#F1416C"/>
<g filter="url(#filter0_i_2427_1513)">
<path d="M19.7788 16.3892L15.4283 1.49549C15.1684 0.605833 14.3977 0 13.5256 0C12.4642 0 11.589 0.888989 11.5349 2.02195L11.0042 13.1544C10.9854 13.5498 11.03 13.9457 11.1362 14.325L13.4978 22.7627C13.7033 23.497 14.3354 24 15.0524 24H17.2477C17.954 24 18.5792 23.5117 18.7938 22.7925L19.77 19.5202C20.0736 18.5023 20.0767 17.4091 19.7788 16.3892Z" fill="#F4F4F4"/>
<path d="M19.7788 16.3892L15.4283 1.49549C15.1684 0.605833 14.3977 0 13.5256 0C12.4642 0 11.589 0.888989 11.5349 2.02195L11.0042 13.1544C10.9854 13.5498 11.03 13.9457 11.1362 14.325L13.4978 22.7627C13.7033 23.497 14.3354 24 15.0524 24H17.2477C17.954 24 18.5792 23.5117 18.7938 22.7925L19.77 19.5202C20.0736 18.5023 20.0767 17.4091 19.7788 16.3892Z" fill="url(#paint0_linear_2427_1513)"/>
</g>
<path d="M8.79833 0H13.347C14.4608 0 15.2554 1.12554 14.9241 2.23393L8.77872 22.7904C8.56364 23.5099 7.92466 24 7.20164 24H2.65301C1.53917 24 0.74458 22.8745 1.07593 21.766L7.22126 1.20954C7.43637 0.490076 8.07535 0 8.79833 0Z" fill="#F1416C"/>
</g>
<defs>
<filter id="filter0_i_2427_1513" x="7" y="0" width="13" height="27" filterUnits="userSpaceOnUse" color-interpolation-filters="sRGB">
<feFlood flood-opacity="0" result="BackgroundImageFix"/>
<feBlend mode="normal" in="SourceGraphic" in2="BackgroundImageFix" result="shape"/>
<feColorMatrix in="SourceAlpha" type="matrix" values="0 0 0 0 0 0 0 0 0 0 0 0 0 0 0 0 0 0 127 0" result="hardAlpha"/>
<feOffset dx="-4" dy="3"/>
<feGaussianBlur stdDeviation="2"/>
<feComposite in2="hardAlpha" operator="arithmetic" k2="-1" k3="1"/>
<feColorMatrix type="matrix" values="0 0 0 0 0.904167 0 0 0 0 0.892865 0 0 0 0 0.892865 0 0 0 0.4 0"/>
<feBlend mode="normal" in2="shape" result="effect1_innerShadow_2427_1513"/>
</filter>
<linearGradient id="paint0_linear_2427_1513" x1="12.6599" y1="10.6226" x2="20.8577" y2="12.9237" gradientUnits="userSpaceOnUse">
<stop stop-opacity="0.2"/>
<stop offset="0.911458" stop-color="white" stop-opacity="0"/>
</linearGradient>
<clipPath id="clip0_2427_1513">
<rect width="121" height="24" fill="white"/>
</clipPath>
</defs>
</svg>
