<svg width="88" height="144" viewBox="0 0 88 144" fill="none" xmlns="http://www.w3.org/2000/svg">
<g clip-path="url(#clip0_403_3524)">
<path d="M12.7358 8C11.4578 8 10.2122 8.45 9.332 9.3284C8.45 10.2032 8 11.4578 8 12.7322V130.906C8 132.18 8.45 133.426 9.332 134.308C10.2122 135.19 11.4578 135.64 12.7358 135.64H75.9518C77.2262 135.64 78.4826 135.19 79.3538 134.308C80.2376 133.426 80.6858 132.18 80.6858 130.906V12.7322C80.6858 11.4578 80.2358 10.2032 79.3538 9.3284C78.4826 8.4482 77.2262 8 75.9518 8H66.1922C65.4236 8 64.7396 8.459 64.4498 9.17L62.9954 12.7322C62.5256 13.8968 62.153 14.4674 61.559 14.8526C60.9794 15.2468 59.948 15.5744 57.923 15.5744H30.761C28.7378 15.5744 27.7064 15.245 27.125 14.8526C26.5346 14.4692 26.1584 13.8986 25.6904 12.7322L24.2378 9.17C23.9534 8.4662 23.2694 8 22.5116 8H12.7358Z" fill="#9EDCFF"/>
<path d="M12.1649 4.17598H75.9461C80.5505 4.17598 84.1847 7.82998 84.1847 12.4254V131.647C84.1847 136.24 80.5487 139.898 75.9461 139.898H12.1649C7.56413 139.898 3.92453 136.24 3.92453 131.647V12.4254C3.92633 7.83178 7.56413 4.17598 12.1649 4.17598ZM12.1649 0.44458C5.55893 0.44458 0.184128 5.81938 0.184128 12.4254V131.647C0.184128 138.256 5.55893 143.627 12.1649 143.627H75.9461C82.5557 143.627 87.9359 138.256 87.9359 131.647V12.4254C87.9359 5.81938 82.5557 0.44458 75.9461 0.44458H12.1649Z" fill="#7E94B5"/>
<path d="M38.0235 8.21698C36.9813 8.21698 36.1497 9.04858 36.1497 10.0908C36.1497 11.1312 36.9813 11.9664 38.0235 11.9664H51.0357C52.0671 11.9664 52.9113 11.1312 52.9113 10.0908C52.9113 9.04858 52.0671 8.21698 51.0357 8.21698H38.0235Z" fill="#B5B5C3"/>
</g>
<defs>
<clipPath id="clip0_403_3524">
<rect width="88" height="144" fill="white"/>
</clipPath>
</defs>
</svg>
