<svg width="32" height="33" viewBox="0 0 32 33" fill="none" xmlns="http://www.w3.org/2000/svg">
<g clip-path="url(#clip0_465_13984)">
<path d="M17.2937 25.0344L11.0311 31.2783C10.8437 31.3908 10.5999 31.6721 10.0936 31.522C9.83119 31.4283 9.51238 31.1282 9.45619 30.7908V30.772L7.65613 20.0095L9.11869 18.9033C9.30806 19.0144 12.9221 21.1336 12.6999 21.0033L17.2936 23.7033C17.6499 24.0783 17.6499 24.6595 17.2937 25.0344Z" fill="#009AE4"/>
<path d="M31.9818 2.56006L26.2938 30.8096C26.2375 31.1096 26.0125 31.3721 25.7125 31.4846C25.6 31.5408 25.4875 31.5596 25.375 31.5596C25.1875 31.5596 25 31.5033 24.8312 31.3908C24.6426 31.2561 10.8274 21.3881 11.7063 22.0158C3.34125 17.8721 7.70456 20.05 0.525 16.4658C0.1875 16.2971 0 15.9596 0 15.6033C0.01875 15.2283 0.225 14.9096 0.5625 14.7596L30.688 1.51006C31.0068 1.37881 31.3818 1.41631 31.6443 1.64131C31.6818 1.67881 31.738 1.73506 31.7755 1.77256C31.963 1.99756 32.038 2.27881 31.9818 2.56006Z" fill="#25D9F8"/>
<path d="M31.7757 1.77246L12.7002 21.0032L11.7066 22.0156L10.094 31.5219C9.83156 31.4282 9.51274 31.1281 9.45656 30.7907V30.7719L7.65649 20.0094L9.11906 18.9032L31.7757 1.77246Z" fill="#00C0F1"/>
</g>
<defs>
<clipPath id="clip0_465_13984">
<rect width="32" height="32" fill="white" transform="translate(0 0.5)"/>
</clipPath>
</defs>
</svg>
