<svg width="32" height="33" viewBox="0 0 32 33" fill="none" xmlns="http://www.w3.org/2000/svg">
<g clip-path="url(#clip0_465_13985)">
<path d="M26.2764 31.9545C19.4473 32.6831 12.56 32.6831 5.73091 31.9545C4.40476 31.8145 3.16668 31.2241 2.22308 30.2818C1.27947 29.3396 0.687362 28.1023 0.545458 26.7764C-0.183121 19.9473 -0.183121 13.06 0.545458 6.23091C0.685501 4.90476 1.27588 3.66668 2.21816 2.72308C3.16044 1.77947 4.39769 1.18736 5.72364 1.04546C12.5527 0.316879 19.44 0.316879 26.2691 1.04546C27.5952 1.1855 28.8333 1.77588 29.7769 2.71816C30.7205 3.66044 31.3126 4.89769 31.4545 6.22364C32.1831 13.0527 32.1831 19.94 31.4545 26.7691C31.3145 28.0952 30.7241 29.3333 29.7818 30.2769C28.8396 31.2205 27.6023 31.8126 26.2764 31.9545Z" fill="#29A71A"/>
<path d="M23.0546 9.44536C21.3899 7.76408 19.1792 6.73301 16.8213 6.53813C14.4634 6.34324 12.1134 6.99737 10.1953 8.38252C8.27721 9.76768 6.91722 11.7927 6.36065 14.0922C5.80409 16.3918 6.08759 18.8146 7.16003 20.9235L6.1073 26.0344C6.09638 26.0853 6.09607 26.1379 6.10639 26.1889C6.11672 26.2399 6.13745 26.2882 6.1673 26.3308C6.21103 26.3955 6.27345 26.4453 6.34622 26.4735C6.41899 26.5018 6.49866 26.5072 6.57457 26.489L11.5837 25.3017C13.6867 26.347 16.0924 26.6123 18.3726 26.0503C20.6529 25.4884 22.6598 24.1357 24.0363 22.2329C25.4128 20.3302 26.0696 18.0007 25.8899 15.6592C25.7101 13.3176 24.7054 11.1157 23.0546 9.44536ZM21.4928 21.9108C20.341 23.0594 18.8578 23.8175 17.2523 24.0785C15.6468 24.3394 13.9999 24.09 12.5437 23.3654L11.8455 23.0199L8.77457 23.7472L8.78366 23.709L9.42003 20.6181L9.07821 19.9435C8.33414 18.4822 8.07165 16.8229 8.32837 15.2033C8.58508 13.5836 9.34781 12.0868 10.5073 10.9272C11.9642 9.47071 13.94 8.65251 16 8.65251C18.0601 8.65251 20.0358 9.47071 21.4928 10.9272C21.5052 10.9414 21.5185 10.9548 21.5328 10.9672C22.9716 12.4274 23.7749 14.3972 23.7674 16.4472C23.7599 18.4972 22.9422 20.4611 21.4928 21.9108Z" fill="white"/>
<path d="M21.22 19.6438C20.8437 20.2365 20.2491 20.962 19.5019 21.1419C18.1928 21.4583 16.1837 21.1529 13.6837 18.8219L13.6528 18.7947C11.4546 16.7565 10.8837 15.0601 11.0219 13.7147C11.0982 12.951 11.7346 12.2601 12.271 11.8092C12.3557 11.7368 12.4563 11.6853 12.5646 11.6588C12.6729 11.6322 12.7858 11.6313 12.8945 11.6563C13.0032 11.6812 13.1045 11.7312 13.1904 11.8022C13.2763 11.8733 13.3443 11.9635 13.3891 12.0656L14.1982 13.8838C14.2508 14.0017 14.2703 14.1316 14.2546 14.2598C14.2389 14.3879 14.1886 14.5093 14.1091 14.611L13.7 15.1419C13.6123 15.2516 13.5593 15.385 13.548 15.5249C13.5366 15.6649 13.5674 15.8051 13.6364 15.9274C13.8655 16.3292 14.4146 16.9201 15.0237 17.4674C15.7073 18.0856 16.4655 18.651 16.9455 18.8438C17.0739 18.8962 17.2151 18.909 17.3509 18.8805C17.4867 18.852 17.6108 18.7835 17.7073 18.6838L18.1819 18.2056C18.2734 18.1153 18.3873 18.0509 18.5119 18.019C18.6364 17.987 18.7672 17.9887 18.891 18.0238L20.8128 18.5692C20.9188 18.6017 21.016 18.6581 21.0969 18.7339C21.1778 18.8097 21.2402 18.9031 21.2795 19.0068C21.3188 19.1104 21.3339 19.2218 21.3236 19.3322C21.3133 19.4426 21.2779 19.5492 21.22 19.6438Z" fill="white"/>
</g>
<defs>
<clipPath id="clip0_465_13985">
<rect width="32" height="32" fill="white" transform="translate(0 0.5)"/>
</clipPath>
</defs>
</svg>
