<svg width="32" height="33" viewBox="0 0 32 33" fill="none" xmlns="http://www.w3.org/2000/svg">
<g clip-path="url(#clip0_465_13986)">
<path d="M26.2764 31.9545C19.4473 32.6831 12.56 32.6831 5.73091 31.9545C4.40476 31.8145 3.16668 31.2241 2.22308 30.2818C1.27947 29.3396 0.687362 28.1023 0.545458 26.7764C-0.183121 19.9473 -0.183121 13.06 0.545458 6.23091C0.685501 4.90476 1.27588 3.66668 2.21816 2.72308C3.16044 1.77947 4.39769 1.18736 5.72364 1.04546C12.5527 0.316879 19.44 0.316879 26.2691 1.04546C27.5952 1.1855 28.8333 1.77588 29.7769 2.71816C30.7205 3.66044 31.3126 4.89769 31.4545 6.22364C32.1831 13.0527 32.1831 19.94 31.4545 26.7691C31.3145 28.0952 30.7241 29.3333 29.7818 30.2769C28.8396 31.2205 27.6023 31.8126 26.2764 31.9545Z" fill="#E60000"/>
<path d="M25.5327 11.6892C25.1327 10.4583 23.8091 9.71288 22.5909 9.54197C18.2093 9.07651 13.7907 9.07651 9.40911 9.54197C8.19093 9.71288 6.86366 10.4511 6.46729 11.6892C5.84367 14.8668 5.84367 18.1353 6.46729 21.3129C6.86729 22.542 8.19093 23.2892 9.40911 23.4601C13.7907 23.9256 18.2093 23.9256 22.5909 23.4601C23.8091 23.2892 25.1364 22.5511 25.5327 21.3129C26.1564 18.1353 26.1564 14.8668 25.5327 11.6892ZM13.6073 20.3329V12.6674L19.8473 16.5001C17.7437 17.7929 15.7018 19.0456 13.6073 20.3329Z" fill="white"/>
</g>
<defs>
<clipPath id="clip0_465_13986">
<rect width="32" height="32" fill="white" transform="translate(0 0.5)"/>
</clipPath>
</defs>
</svg>
